<?xml version="1.0" encoding="utf-8"?>
<!-- Generator: Adobe Illustrator 22.0.1, SVG Export Plug-In . SVG Version: 6.00 Build 0)  -->
<svg version="1.1" id="Layer_1" xmlns="http://www.w3.org/2000/svg" xmlns:xlink="http://www.w3.org/1999/xlink" x="0px" y="0px"
	 viewBox="0 0 254 254" style="enable-background:new 0 0 254 254;" xml:space="preserve">
<style type="text/css">
	.st0{fill:url(#SVGID_1_);}
	.st1{fill:url(#SVGID_2_);}
	.st2{opacity:0.1;enable-background:new    ;}
	.st3{opacity:0.3;fill:#FFFFFF;enable-background:new    ;}
	.st4{clip-path:url(#SVGID_4_);fill:#231F20;}
	.st5{fill:#754823;}
	.st6{fill:#231F20;}
	.st7{clip-path:url(#SVGID_6_);fill:#231F20;}
	.st8{fill:#83572F;}
	.st9{fill:#74431F;}
	.st10{clip-path:url(#SVGID_8_);fill:#74431F;}
	.st11{clip-path:url(#SVGID_8_);fill:#633515;}
	.st12{fill:#915F3E;}
	.st13{clip-path:url(#SVGID_10_);fill:#915F3E;}
	.st14{clip-path:url(#SVGID_10_);fill:#231F20;}
	.st15{fill:#FFFFFF;}
	.st16{fill:#F6F18E;}
</style>
<linearGradient id="SVGID_1_" gradientUnits="userSpaceOnUse" x1="-381.9844" y1="509.9896" x2="-381.9844" y2="510.9896" gradientTransform="matrix(253.3608 0 0 -253.3608 96906.5547 129464.7422)">
	<stop  offset="0" style="stop-color:#574C4A"/>
	<stop  offset="1" style="stop-color:#80716D"/>
</linearGradient>
<path class="st0" d="M0,171.2v-89C0,10.3,10.3,0,82.1,0h89.2c71.8,0,82.1,10.3,82.1,82.2v89c0,71.9-10.3,82.2-82.1,82.2H82.1
	C10.3,253.4,0,243.1,0,171.2L0,171.2z"/>
<linearGradient id="SVGID_2_" gradientUnits="userSpaceOnUse" x1="-380.8103" y1="509.2818" x2="-381.3966" y2="510.352" gradientTransform="matrix(159.2833 0 0 -152.8247 60827.8242 78038.0156)">
	<stop  offset="0" style="stop-color:#268D83"/>
	<stop  offset="1" style="stop-color:#2EA19E"/>
</linearGradient>
<path class="st1" d="M54.7,47.8c-12.5,78.9-5.9,152.8-5.9,152.8h38.9c-3.7-19.7-17-109.7-5.9-110c5.9,0.9,33,76.4,33,76.4
	s6-0.7,12-0.7c6,0,12,0.7,12,0.7s27.1-75.4,33-76.4c11.1,0.3-2.2,90.3-5.9,110h38.9c0,0,6.5-73.9-5.9-152.8h-36
	c-6.9,0.1-33,45.9-36,45.9c-3,0-29.1-45.8-36-45.9H54.7L54.7,47.8z"/>
<path class="st2" d="M196.8,50.4c5.6,38,6.9,74.5,6.8,101.7c-0.1,27.8-1.7,45.9-1.7,45.9h-32.8l-3.5,2.6h38.9
	c0,0,6.5-73.9-5.9-152.8L196.8,50.4z M93.7,49.4C103.9,60.8,121.6,91,124,91C117.6,82.7,101.6,56.2,93.7,49.4L93.7,49.4z M79.1,87.9
	c-11.1,0.3,2.2,90.3,5.9,110H51l-2.3,2.6h38.9C84,181,70.8,91.8,81.6,90.6C80.6,89.1,79.7,88,79.1,87.9L79.1,87.9z M169,87.9
	c-5.9,0.9-33,76.4-33,76.4s-6-0.7-12-0.7c-3.5,0-6.6,0.2-8.7,0.4l-0.6,3c0,0,6-0.7,12-0.7c6,0,12,0.7,12,0.7s26.9-74.9,32.9-76.4
	C170.9,88.9,170.1,87.9,169,87.9L169,87.9z"/>
<path class="st3" d="M54.7,47.8c-12.5,78.9-5.9,152.8-5.9,152.8L51,198c-1.2-17.4-4.3-80.5,6.3-147.6h36c0.8,0,1.8,0.6,3,1.6
	c-2.4-2.6-4.3-4.3-5.6-4.3H54.7z M162.6,47.8c-6.9,0.1-33,45.9-36,45.9c1.2,1.6,2.2,2.6,2.6,2.6c3,0,29.1-45.8,36-45.9h31.8l1.6-2.6
	H162.6z M84.2,93.2c8.8,13.1,30.5,73.7,30.5,73.7l0.6-3c-5.4-14.7-25.8-70-31-70.8C84.3,93.2,84.3,93.2,84.2,93.2L84.2,93.2z
	 M174.3,93.2c5.9,15-5.2,89.6-8.6,107.4l3.5-2.8C173.7,171.4,184.6,93.5,174.3,93.2L174.3,93.2z"/>
<g>
	<g>
		<defs>
			<rect id="SVGID_3_" x="91.9" y="178.5" width="70.1" height="61.4"/>
		</defs>
		<clipPath id="SVGID_4_">
			<use xlink:href="#SVGID_3_"  style="overflow:visible;"/>
		</clipPath>
		<path class="st4" d="M162.1,224.3c0,5.5-3.6,10-8.4,12c-5.6,2.3-11.7,1.7-17.7,1.6c-8.7-0.1-17.2,2.9-25.9,1.7
			c-5.4-0.8-11.7-2.7-15.4-7.1c-2-2.3-3-5.1-2.7-8.2c0.3-2.6,1.9-5.9,3.9-7.5c-1.2-2.3-0.9-5.2,0.1-7.8c1.4-3.6,5.8-4.9,9.3-5.7
			c-2-2.2-2.7-5.8-0.7-8.4c1.2-1.5,2.9-2.5,4.8-2.9c1.7-0.4,3.3-0.8,5-1l0.1,0.7c-1.3,0.2-2.7,0.6-4,1c-1.6,0.5-3.3,1-4.5,2.2
			c-1.3,1.3-1.9,3.1-1.5,4.9c0.4,1.8,1.7,3,2.8,4.5c0.2,0.2-0.1,0.4-0.3,0.3c-0.4-0.2-0.7-0.4-1-0.7c-3.1,0.8-7.5,1.8-9,5
			c-0.7,1.5-1,3.4-1,5.1c0.1,1.8,0.9,3.2,2,4.6c0.2,0.3-0.1,0.6-0.4,0.4c-0.5-0.4-0.9-0.9-1.3-1.4c-1,0.9-1.7,2.3-2.3,3.5
			c-1,1.9-1.5,4.1-0.9,6.2c0.7,3,2.8,5.3,5.3,7c5.8,3.7,13,4.8,19.7,4.2c4.5-0.4,8.9-1.3,13.4-1.7c3.5-0.3,7,0,10.5,0
			c6,0,13.2-0.7,16.9-6.3c2.4-3.7,2.5-8.1,0.7-12.1c-0.9-2-2.1-3.7-4-4.9c-1-0.7-2.1-1.3-3.2-1.9l0.3-0.6c2.3,1.1,4.7,2.2,6.3,4.3
			C160.9,217.9,162,221.4,162.1,224.3L162.1,224.3z"/>
	</g>
	<path class="st5" d="M159.7,218.7c1.8,4,1.8,8.4-0.7,12.1c-3.7,5.6-10.9,6.3-16.9,6.3c-1.2,0-2.4,0-3.6-0.1
		c-2.3-0.1-4.6-0.1-6.9,0.1c-4.5,0.3-8.9,1.3-13.4,1.7c-6.7,0.6-13.9-0.5-19.7-4.2c-2.5-1.6-4.6-4-5.3-7c-0.5-2.1,0-4.3,0.9-6.2
		c0.6-1.2,1.3-2.6,2.3-3.5c0.3,0.5,0.8,0.9,1.3,1.4c0.3,0.2,0.6-0.1,0.4-0.4c-1.1-1.4-1.9-2.8-2-4.6c-0.1-1.7,0.3-3.6,1-5.1
		c1.5-3.3,5.9-4.2,9-5c0.3,0.3,0.6,0.5,1,0.7c0.2,0.1,0.5-0.1,0.3-0.3c-1.1-1.5-2.3-2.7-2.8-4.5c-0.4-1.9,0.2-3.6,1.5-4.9
		c1.2-1.2,2.9-1.7,4.5-2.2c1.3-0.4,2.6-0.8,4-1c0.7-0.1,1.4-0.2,2.1-0.2c0.4,0,0.4-0.6,0-0.6c-0.5,0-1,0-1.5,0
		c-1.6-2.4-0.6-4.8,1.2-6.9c1.9-2.2,4.6-3.1,7.3-3.6c2.8-0.5,5.3-0.1,8.1,0.3c0.7,0.1,2,0,2.7-0.5c0,0.1-0.1,0.1-0.1,0.2
		c-0.4,0.9-1.3,1.5-2,2.3c-0.4,0.5-0.8,1.1-0.7,1.7c0.1,1.2,1.5,2.1,2.4,2.6c1.6,0.9,3.3,1.6,5,2.4c0.9,0.4,1.5,0.9,2,1.7
		c1.3,1.8,0.9,3.5,0.6,5.5c0,0.2,0.3,0.5,0.4,0.3c0.2-0.2,0.3-0.5,0.4-0.7h0c0.1,0,0.2,0,0.3,0c4.1-0.3,8.5,1.5,10.7,5.1
		c1.1,1.8,1.1,4.2,0.1,6.1c-0.8,1.6-2.5,2.3-3.7,3.5c-0.2,0.2,0,0.4,0.2,0.4c0.3-0.1,0.5-0.2,0.7-0.3l0,0c0.4,0.2,0.9,0.5,1.3,0.7
		c1.1,0.6,2.2,1.2,3.2,1.9C157.6,215,158.7,216.6,159.7,218.7"/>
	<path class="st6" d="M154.9,201.6c1.7,3.4,0,7.5-3.1,9.2c0.3,0.2,0.7,0.3,1,0.5l-0.3,0.6c-0.4-0.2-0.9-0.5-1.3-0.7l0,0
		c-0.2,0.1-0.5,0.2-0.7,0.3c-0.2,0.1-0.4-0.2-0.2-0.4c1.2-1.2,2.8-1.9,3.7-3.5c1-1.9,1-4.3-0.1-6.1c-2.2-3.6-6.6-5.4-10.7-5.1l0-0.8
		C147.6,195,152.8,197.1,154.9,201.6L154.9,201.6z"/>
	<g>
		<defs>
			<rect id="SVGID_5_" x="91.9" y="178.5" width="70.1" height="61.4"/>
		</defs>
		<clipPath id="SVGID_6_">
			<use xlink:href="#SVGID_5_"  style="overflow:visible;"/>
		</clipPath>
		<path class="st7" d="M141.7,190.3c1,1.4,1.7,3.4,1.3,5.1l0,0.8c-0.1,0-0.2,0-0.3,0h0c-0.1,0.2-0.3,0.5-0.4,0.7
			c-0.2,0.2-0.5,0-0.4-0.3c0.3-2,0.7-3.7-0.6-5.5c-0.6-0.8-1.2-1.3-2-1.7c-1.6-0.8-3.4-1.5-5-2.4c-0.9-0.5-2.4-1.4-2.4-2.6
			c0-0.7,0.3-1.2,0.7-1.7c0.7-0.9,1.6-1.5,2-2.3l0.5,0.1c-0.1,0.2-0.2,0.4-0.5,0.7c-0.6,0.8-2.6,2.4-1.9,3.5c1,1.5,3.2,2.2,4.7,2.9
			C138.9,188.3,140.7,188.9,141.7,190.3L141.7,190.3z"/>
		<path class="st7" d="M135,178.8c0.1,0.2,0.1,0.5,0,0.7c0.1,0.4,0.1,0.7-0.1,1.1l-0.5-0.1c0-0.1,0.1-0.1,0.1-0.2
			c-0.7,0.5-2,0.6-2.7,0.5c-2.8-0.4-5.3-0.8-8.1-0.3c-2.7,0.5-5.4,1.5-7.3,3.6c-1.8,2.1-2.8,4.5-1.2,6.9c0.5,0,1,0,1.5,0
			c0.4,0,0.4,0.6,0,0.6c-0.7,0-1.4,0.1-2.1,0.2l-0.1-0.7c-3-2.9,0.9-8.1,3.7-9.7c2.6-1.5,5.7-2.1,8.7-2.1c1.2,0,2.5,0.1,3.7,0.4
			c0.5,0.1,1.1,0.3,1.6,0.4c0.7,0.1,2.6,0.1,2.4-1.2c0-0.1,0-0.1,0-0.2v0c0-0.2,0.2-0.2,0.3-0.1l0,0C135,178.7,135,178.7,135,178.8
			L135,178.8z"/>
	</g>
	<path class="st8" d="M114.3,201.4c-0.1,0-0.2,0-0.2,0c-0.1,0-0.2-0.1-0.3-0.2c0,0,0.1,0,0.1,0c0,0,0,0-0.1-0.1
		c-0.1-0.1-0.1-0.2-0.1-0.2c0,0,0,0,0,0.1c-0.1-0.1-0.1-0.1-0.1-0.2c-0.1-0.3-0.1-0.6-0.1-0.9c0-0.5,0.3-1.3,0.9-1.3c0,0,0,0,0.1,0
		c0.4,0,0.7,0.2,0.8,0.6c0,0.2,0,0.4,0,0.6c0,0.2,0,0.4-0.1,0.6c0,0.1,0,0.3-0.1,0.4c0,0,0-0.1,0-0.1c0,0,0,0.1,0,0.2
		c0,0,0-0.1,0-0.1c0,0,0,0.1,0,0.2C114.8,201.2,114.5,201.4,114.3,201.4"/>
	<path class="st8" d="M112.6,234.4c-0.1,0-0.1,0-0.2,0c-0.2,0-0.3-0.1-0.5-0.2c-0.2-0.1-0.7-0.3-1-0.6c-0.5-0.5-0.9-1.1-1.1-1.8
		c-0.2-0.7,0.5-1.6,1.2-1.6c0.2,0,0.4,0.1,0.6,0.2c0.3,0.2,0.6,0.5,0.8,0.8c0.1,0.2,0.2,0.3,0.2,0.3c0,0,0,0-0.1-0.1
		c0,0,0.1,0.1,0.1,0.1c0.1,0.2,0.3,0.3,0.4,0.5c0.3,0.4,0.6,0.9,0.6,1.5c0.1,0.4-0.1,0.9-0.6,0.9c0,0,0,0-0.1,0c0,0,0,0-0.1,0
		c-0.1,0-0.1,0-0.2,0C112.7,234.4,112.7,234.4,112.6,234.4"/>
	<path class="st9" d="M153.6,219.8c-0.6-0.1-1.2,0.1-1.6,0.6c-0.5,0.8-0.3,1.8-0.6,2.7c-0.3,1.1-0.5,2-0.2,3.1
		c0.2,0.6,0.9,0.9,1.4,0.6c0.6-0.3,1.1-0.6,1.5-1.2c0.4-0.6,0.7-1.2,0.9-1.9C155.5,222.3,155.3,220.1,153.6,219.8L153.6,219.8z"/>
	<path class="st9" d="M147.8,203.7c-0.6-0.1-1.2,0.1-1.6,0.6c-0.5,0.8-0.3,1.8-0.6,2.7c-0.3,1.1-0.5,2-0.2,3.1
		c0.2,0.6,0.9,0.9,1.4,0.6c0.6-0.3,1.1-0.6,1.5-1.2c0.4-0.6,0.7-1.2,0.9-1.9C149.8,206.3,149.5,204,147.8,203.7L147.8,203.7z"/>
	<path class="st9" d="M112.6,195.7c0.4,0.1,0.7,0.3,0.8,0.8c0.1,0.6-0.2,1.1-0.3,1.7c-0.1,0.7-0.2,1.3-0.6,1.9c-0.3,0.3-0.7,0.3-1,0
		c-0.3-0.3-0.5-0.6-0.6-1c-0.1-0.4-0.2-0.9-0.1-1.3C110.8,196.7,111.5,195.5,112.6,195.7L112.6,195.7z"/>
	<g>
		<defs>
			<rect id="SVGID_7_" x="91.9" y="178.5" width="70.1" height="61.4"/>
		</defs>
		<clipPath id="SVGID_8_">
			<use xlink:href="#SVGID_7_"  style="overflow:visible;"/>
		</clipPath>
		<path class="st10" d="M114,227.9c-0.1-0.2-0.3-0.3-0.5-0.5c0,0-0.5-0.2-0.4-0.1c-0.2-0.2-0.4-0.3-0.7-0.4c0.2,0.1-0.1-0.2-0.2-0.2
			c-0.3-0.4-0.7-0.7-1.3-0.7c-0.7,0-1.3,0.7-1.1,1.5c0,0.1,0.1,0.3,0.1,0.3c0,0.1,0,0.1,0,0.2c0,0.2,0.1,0.3,0.2,0.5
			c0.2,0.5,0.6,0.8,1.1,1.1c0.7,0.4,2.3,0.6,2.9-0.4C114.4,228.7,114.3,228.3,114,227.9L114,227.9z"/>
		<path class="st11" d="M161.4,223.8c-0.1-0.8,0-1.7-0.2-2.5c0.1,1.2-0.1,2.5-0.4,3.7c-0.6,1.2-1.2,2.4-2.2,3.5
			c-1.8,2.1-4.2,3.7-6.7,4.7c-2.7,1.1-5.6,1.5-8.5,1.5c-1.8,0-3.6-0.2-5.4-0.3c-2.2-0.1-4.4,0-6.6,0.1c-4.2,0.2-8.4,0.7-12.6,0.9
			c-3.5,0.2-7.3,0.4-10.8-0.3c-4.7-1-10-3.8-12.6-8c-1.1-1.7-1.6-3.8-1.1-5.8c0-0.6,0.2-1.2,0.4-1.8c-0.1-0.2-0.3-0.3-0.5-0.4
			c-1.7,2.5-2.8,6.4-1.6,9.4c0.8,1.6,2,3.1,3.3,4.3c4,3.7,9.3,5.9,14.7,6.3c8.4,0.7,16.9-1,25.3-1.3c3.6-0.1,7.1,0.4,10.7,0
			c1.7-0.2,3.3-0.6,4.9-1.1c0.2-0.2,0.4-0.4,0.7-0.5c3.4-1.3,6.8-3.3,8.3-6.8C161.4,227.7,161.6,225.7,161.4,223.8L161.4,223.8z"/>
	</g>
	<path class="st12" d="M103.3,205.5c-2.5-0.1-4.7,2.1-5.6,4.2c-1.1,2.5-0.7,5.1,1.1,7.1c0.3,0.3,0.8-0.1,0.6-0.5
		c-0.9-1.9-1-4.2-0.4-6.1c0.8-2.2,2.4-3.4,4.4-4.5C103.5,205.7,103.4,205.5,103.3,205.5L103.3,205.5z"/>
	<path class="st12" d="M106.3,223.5c-1.5-0.4-3.1-0.8-4.6-1.2c-1.6-0.5-2.9-1.4-4.4-2.1c-0.3-0.1-0.8,0.2-0.5,0.5
		c2.2,3,6.1,3,9.5,3.3C106.5,224.1,106.6,223.6,106.3,223.5L106.3,223.5z"/>
	<path class="st12" d="M107.3,195.4c0-0.2-0.1-0.4-0.4-0.4c-1.1,0.3-1.6,1.7-1.7,2.7c-0.2,1.5,0.2,2.7,1.3,3.8
		c0.3,0.3,0.8-0.1,0.6-0.5c-0.5-0.9-0.6-2-0.5-3C106.6,197,107.2,196.3,107.3,195.4L107.3,195.4z"/>
	<path class="st12" d="M146.6,197.1C146.6,197.1,146.6,197.2,146.6,197.1c1.5,1.1,3,1.8,4.2,3.2c1.2,1.4,1.5,3.3,2.1,5
		c0.1,0.4,0.7,0.4,0.8,0C154.7,201.3,150.6,197,146.6,197.1L146.6,197.1z"/>
	<path class="st12" d="M140.7,191.8c-0.3-0.8-1-1.8-2-1.6c-0.3,0.1-0.3,0.4-0.1,0.6c1,1.2,1.6,2.6,1.8,4.1c0.1,0.3,0.5,0.3,0.6,0
		C141.3,193.8,141.2,192.9,140.7,191.8L140.7,191.8z"/>
	<path class="st12" d="M158.4,217.8c-0.1-0.2-2.3-3.3-2.6-2.5c-0.4,0.9,0.9,2.5,1.4,3.3c1,1.7,2,3.6,2.3,5.6
		c0.1,0.4,0.7,0.3,0.7-0.1C160.3,221.7,159.5,219.7,158.4,217.8L158.4,217.8z"/>
	<g>
		<defs>
			<rect id="SVGID_9_" x="91.9" y="178.5" width="70.1" height="61.4"/>
		</defs>
		<clipPath id="SVGID_10_">
			<use xlink:href="#SVGID_9_"  style="overflow:visible;"/>
		</clipPath>
		<path class="st13" d="M127,181.3c-1.3-0.1-2.5-0.3-3.9-0.2c-1.3,0.2-2.6,0.6-3.8,1.1c-2,0.9-4.3,3-4.2,5.5l0,0
			c0.9-0.4,1.3-1.3,1.9-1.9c0.9-0.9,1.9-1.7,3-2.2c2-1,4.7-1.6,6.9-1.7C127.3,181.8,127.3,181.3,127,181.3L127,181.3z"/>
		<path class="st14" d="M142.1,237c-3.5,0-7-0.3-10.5,0c-4.5,0.3-8.9,1.3-13.4,1.7c-6.7,0.6-13.9-0.5-19.7-4.2c-2.5-1.6-4.6-4-5.3-7
			c-0.5-2.1,0-4.3,0.9-6.2c0.6-1.2,1.3-2.6,2.3-3.5c0.3,0.5,0.8,0.9,1.3,1.4c0.3,0.2,0.6-0.1,0.4-0.4c-1.1-1.4-1.9-2.8-2-4.6
			c-0.1-1.7,0.3-3.6,1-5.1c1.5-3.3,5.9-4.2,9-5c0.3,0.3,0.6,0.5,1,0.7c0.2,0.1,0.5-0.1,0.3-0.3c-1.1-1.5-2.3-2.7-2.8-4.5
			c-0.4-1.9,0.2-3.6,1.5-4.9c1.2-1.2,2.9-1.7,4.5-2.2c1.9-0.6,4.1-1.2,6.1-1.2c0.4,0,0.4-0.6,0-0.6c-0.5,0-1,0-1.5,0
			c-1.6-2.4-0.6-4.8,1.2-6.9c1.9-2.2,4.6-3.1,7.3-3.6c2.8-0.5,5.3-0.1,8.1,0.3c0.7,0.1,2,0,2.7-0.5c-0.4,1-1.3,1.6-2.1,2.5
			c-0.4,0.5-0.8,1.1-0.7,1.7c0.1,1.2,1.5,2.1,2.4,2.6c1.6,0.9,3.3,1.6,5,2.4c0.9,0.4,1.5,0.9,2,1.7c1.3,1.8,0.9,3.5,0.6,5.5
			c0,0.2,0.3,0.5,0.4,0.3c0.2-0.2,0.3-0.5,0.4-0.7l0,0c4.2-0.4,8.7,1.4,11,5.1c1.1,1.8,1.1,4.2,0.1,6.1c-0.8,1.6-2.5,2.3-3.7,3.5
			c-0.2,0.2,0,0.4,0.2,0.4c0.3-0.1,0.5-0.2,0.7-0.3l0,0c1.5,0.8,3.1,1.7,4.6,2.6c1.9,1.2,3.1,2.8,4,4.9c1.8,4,1.8,8.4-0.7,12.1
			C155.3,236.3,148.1,237,142.1,237L142.1,237z M159.1,215.6c-1.9-2.5-4.7-3.5-7.3-4.8c3.1-1.7,4.8-5.8,3.1-9.2
			c-2.2-4.5-7.3-6.7-12-6.1c0.4-1.7-0.2-3.7-1.3-5.1c-1-1.4-2.7-2-4.3-2.7c-1.5-0.7-3.7-1.4-4.7-2.9c-0.7-1.1,1.2-2.7,1.9-3.5
			c0.6-0.8,0.6-1.2,0.5-1.8c0-0.2,0-0.4,0-0.7c0-0.1,0-0.1-0.1-0.1l0,0c0-0.2-0.3-0.1-0.3,0.1l0,0c0,0-0.1,0.1,0,0.2
			c0.2,1.2-1.7,1.3-2.4,1.2c-0.6-0.1-1.1-0.3-1.6-0.4c-1.2-0.3-2.5-0.4-3.7-0.4c-3,0-6.1,0.6-8.7,2.1c-2.8,1.6-6.7,6.8-3.7,9.7
			c-1.7,0.2-3.3,0.6-5,1c-1.8,0.5-3.6,1.4-4.8,2.9c-2,2.5-1.4,6.1,0.7,8.4c-3.4,0.8-7.8,2-9.3,5.7c-1,2.7-1.3,5.5-0.1,7.8
			c-2,1.6-3.6,4.9-3.9,7.5c-0.3,3.1,0.7,5.9,2.7,8.2c3.7,4.4,10,6.3,15.4,7.1c8.7,1.2,17.2-1.8,25.9-1.7c5.9,0.1,12,0.7,17.7-1.6
			c4.8-2,8.5-6.6,8.4-12C162,221.4,160.9,217.9,159.1,215.6L159.1,215.6z"/>
	</g>
	<path class="st15" d="M133.9,201.8c-2-1.2-4.4-1.1-5.3,0.8c-2.6,4.1-0.4,11,4.9,11.4c2.9,0.2,4.3-2.2,4.6-4.8
		C138.4,206.2,136.4,203.3,133.9,201.8L133.9,201.8z"/>
	<path class="st15" d="M133.9,201.8l0.1-0.1c-0.9-0.5-1.8-0.8-2.7-0.8c-0.6,0-1.2,0.1-1.7,0.4c-0.5,0.3-0.9,0.7-1.2,1.3l0.1,0.1
		l-0.1-0.1c-0.8,1.2-1.1,2.6-1.1,4.1c0,1.8,0.6,3.6,1.6,5c1.1,1.4,2.6,2.4,4.6,2.6c0.1,0,0.3,0,0.4,0c1.4,0,2.4-0.6,3.1-1.5
		c0.7-0.9,1.1-2.1,1.2-3.4c0-0.2,0-0.4,0-0.6c0-2.9-1.9-5.5-4.3-7l0,0L133.9,201.8l-0.1,0.1c2.3,1.4,4.2,4,4.2,6.8
		c0,0.2,0,0.4,0,0.5c-0.1,1.2-0.5,2.4-1.2,3.2c-0.7,0.9-1.6,1.4-2.9,1.4c-0.1,0-0.2,0-0.4,0c-1.9-0.2-3.3-1.1-4.4-2.4
		c-1-1.3-1.6-3.1-1.6-4.8c0-1.4,0.3-2.8,1.1-3.9l0,0l0,0c0.2-0.5,0.6-0.9,1.1-1.2c0.4-0.3,1-0.4,1.5-0.4c0.8,0,1.7,0.3,2.5,0.8l0,0
		L133.9,201.8L133.9,201.8z"/>
	<path class="st15" d="M122.2,204.2c-0.2-0.9-0.8-2.4-1.9-2.4c-0.5-0.4-1-0.4-1.6-0.3c-0.2-0.1-0.5-0.2-0.8,0
		c-1.6,0.8-3.2,1.5-4.2,3.1c-0.6,0.8-0.8,1.7-0.9,2.7c-0.2,0.1-0.3,0.4-0.3,0.6c0,0.4,0.1,0.8,0.1,1.2c0,0,0,0,0,0.1
		c0.1,1.3,0.3,2.2,1.1,3.2c0.9,1,2.1,1.5,3.5,1.4c2.4-0.3,4.4-2.7,5-4.9C122.5,207.3,122.6,205.6,122.2,204.2L122.2,204.2z"/>
	<path class="st15" d="M122.2,204.2l0.1,0c-0.1-0.4-0.3-1.1-0.7-1.6c-0.2-0.3-0.4-0.5-0.6-0.7c-0.2-0.2-0.5-0.3-0.8-0.3l0,0.1
		l0.1-0.1c-0.4-0.3-0.8-0.4-1.2-0.4c-0.2,0-0.3,0-0.5,0l0,0.1l0.1-0.1c-0.1-0.1-0.3-0.1-0.5-0.1c-0.1,0-0.3,0-0.4,0.1l0,0
		c-1.6,0.8-3.2,1.6-4.3,3.1l0,0c-0.6,0.9-0.8,1.8-0.9,2.7l0.1,0l-0.1-0.1c-0.2,0.2-0.3,0.4-0.3,0.7l0,0.1h0c0,0.4,0.1,0.8,0.1,1.2
		l0.1,0l-0.1,0c0,0,0,0.1,0,0.1l0,0h0v0c0,0.6,0.1,1.2,0.3,1.7c0.2,0.5,0.5,1,0.9,1.5l0,0l0,0c0.8,0.9,1.9,1.4,3.1,1.4
		c0.2,0,0.3,0,0.5,0c1.3-0.2,2.4-0.8,3.3-1.8c0.9-0.9,1.5-2.1,1.8-3.3c0.2-0.8,0.3-1.7,0.3-2.5c0-0.7-0.1-1.4-0.2-2.1L122.2,204.2
		l-0.1,0c0.2,0.6,0.2,1.3,0.2,2c0,0.8-0.1,1.7-0.3,2.5c-0.3,1.1-0.9,2.2-1.7,3.1c-0.9,0.9-1.9,1.5-3.1,1.7c-0.1,0-0.3,0-0.4,0
		c-1.1,0-2.1-0.5-2.9-1.4h0c-0.4-0.5-0.7-0.9-0.8-1.4c-0.2-0.5-0.2-1-0.3-1.7l0,0l0,0l0,0l0,0l0,0c-0.1-0.4-0.1-0.8-0.1-1.2v0l0,0
		c0-0.2,0.1-0.4,0.2-0.5l0,0l0-0.1c0.1-0.9,0.3-1.8,0.9-2.6l0,0c1.1-1.5,2.5-2.2,4.2-3.1l0,0c0.1-0.1,0.2-0.1,0.3-0.1
		c0.1,0,0.2,0,0.4,0.1l0,0l0,0c0.2,0,0.3,0,0.5,0c0.4,0,0.7,0.1,1.1,0.3l0,0l0,0c0.2,0,0.5,0.1,0.7,0.3c0.3,0.2,0.6,0.6,0.7,1
		c0.2,0.4,0.3,0.8,0.4,1.1L122.2,204.2L122.2,204.2z"/>
	<path class="st15" d="M141.3,215.4c-0.1,0-0.2,0-0.3,0.1c-0.4,0.2-0.8,0.5-1.1,0.7c-1.9-0.2-3.8,0.6-5.7,1c-1,0.2-2.2,0-3.3,0
		c-1.2,0-2.4,0.1-3.7,0.2c-2.2,0.2-4.5,0.5-6.7,0.7c-1.2,0.1-2.4,0.1-3.6,0c-0.6,0-1.1,0-1.6,0.1c-0.4-0.1-0.8-0.1-1.2,0
		c-0.3-0.1-0.6-0.2-0.8-0.3c-0.6-0.2-1.2-0.3-1.8-0.2c-0.4-0.2-0.8-0.4-1.2-0.5c-0.5-0.2-0.8-0.4-1.2-0.7c-0.4-0.2-0.7,0.3-0.5,0.6
		c0.2,0.2,0.3,0.4,0.5,0.5c-0.1,0.1-0.2,0.4-0.1,0.6c0.2,0.4,0.4,0.7,0.6,1c-0.1,0.2-0.1,0.4,0,0.7c0.2,0.6,0.3,1.3,0.4,1.9
		c0.2,0.8,1,1.7,1.4,2.5c0.7,1.4,1.3,2.7,2.6,3.7c3.3,2.3,7.7,1.4,11.4,1.6c3.4,0.2,7.1,0.7,10.4-0.6c0.8-0.3,1.7-0.8,2.2-1.6
		c0.4-0.7,0.9-1.2,1.3-1.9c1-1.6,1.4-3.7,1.6-5.6c0-0.3,0-0.5-0.1-0.7c0.2-0.3,0.3-0.7,0.3-1c0.1-0.2,0.1-0.4,0.2-0.7
		c0.1-0.5,0.4-1,0.6-1.6C142.2,215.2,141.6,215,141.3,215.4L141.3,215.4z"/>
	<path class="st15" d="M119.3,201.3c-4.2-0.6-7.9,4.8-6.7,8.5c0,0.1,0.2,0.1,0.2,0c0.1-0.9,0-1.7,0.4-2.5c0.3-0.8,0.7-1.7,1.1-2.5
		c0.5-0.9,1.2-1.6,2-2.2c0.9-0.6,2-0.7,3-1C119.5,201.6,119.6,201.3,119.3,201.3L119.3,201.3z"/>
	<path class="st6" d="M112.6,207.2c0.5-2.7,2.3-5,4.8-5.8l0,0c1.5-0.1,2.9-0.3,3.9,1.1c0.9,1.2,1.1,2.8,1.1,4.3
		c-0.1,3.6-2.5,6.7-6.2,6.6C113,213.4,112.2,209.8,112.6,207.2L112.6,207.2z M115.3,214.4c4,1,7.3-2.3,8-6c0.6-3-0.2-7.5-3.9-8
		c-0.8-0.1-1.5,0.1-2.1,0.5c0,0-0.1,0.1-0.1,0.1c-2.7,0.7-4.6,2.9-5.3,5.8C111.2,209.7,112,213.5,115.3,214.4L115.3,214.4z"/>
	<path class="st6" d="M128.7,202.7c1-1.5,2.5-1.4,4-1.3l0.1,0c2.5,0.8,4.2,3,4.7,5.6c0.6,2.6-0.3,6.1-3.4,6.4
		c-3.8,0.4-6.2-3-6.4-6.4C127.6,205.6,127.9,204,128.7,202.7L128.7,202.7z M132.7,214.4c3.5,0.6,5.8-2.1,5.8-5.4
		c0.1-3.4-1.9-6.9-5.2-7.9c-0.1,0-0.3-0.1-0.4-0.1l0,0c-1.4-0.9-3.1-0.6-4.3,0.4c-1.3,1.1-1.7,2.9-1.8,4.5
		C126.5,209.8,128.7,213.8,132.7,214.4L132.7,214.4z"/>
	<path class="st6" d="M118.6,206.4c0.9,0,0.9,1.4,0,1.4C117.7,207.8,117.7,206.4,118.6,206.4L118.6,206.4z M118.4,209.2
		c1,0,1.7-0.8,1.7-1.8c0-1-0.8-1.7-1.7-1.7c-1,0-1.7,0.8-1.7,1.7C116.6,208.5,117.4,209.2,118.4,209.2L118.4,209.2z"/>
	<path class="st6" d="M132.1,206.4c0.9,0,0.9,1.4,0,1.4C131.2,207.8,131.2,206.4,132.1,206.4L132.1,206.4z M131.9,209.2
		c1,0,1.8-0.8,1.8-1.8c0-1-0.8-1.7-1.8-1.7c-1,0-1.7,0.8-1.7,1.7C130.1,208.5,130.9,209.2,131.9,209.2L131.9,209.2z"/>
	<path class="st6" d="M132.6,198.2c2,0,3.4,1.1,5,2.2c0.1,0.1,0.3-0.1,0.2-0.2c-0.8-1.9-2.5-3.5-4.6-3.8c-1.9-0.2-4.3,0.3-5.5,1.8
		c-0.1,0.1-0.1,0.3,0.1,0.3C129.4,199,130.9,198.2,132.6,198.2L132.6,198.2z"/>
	<path class="st6" d="M113.2,200.6c1.6-1.1,2.9-2.2,5-2.2c1.7,0,3.2,0.8,4.9,0.3c0.2,0,0.2-0.2,0.1-0.3c-1.2-1.5-3.7-2-5.5-1.8
		c-2.1,0.3-3.8,1.9-4.6,3.8C113,200.5,113.1,200.7,113.2,200.6L113.2,200.6z"/>
	<path class="st6" d="M115.7,218.2c3,0.2,6-0.2,9-0.4c3.3-0.2,6.5-0.2,9.8-0.5c1.5-0.1,3-0.4,4.4-0.9c0.8-0.3,1.9-0.6,2.8-1.2
		c-0.3,0.9-0.5,1.9-0.7,2.8c-0.2,0.9-0.4,1.8-0.7,2.7c-0.7,0.1-1.4,0.6-2,0.8c-1.1,0.4-2.3,0.5-3.4,0.7c-0.2,0-0.3,0.4-0.1,0.4
		c1.1,0.3,2.2,0.3,3.3,0c0.5-0.1,1.1-0.2,1.7-0.5c-0.6,2-1.5,4.2-3,5.5c-1.3,1-3,1.2-4.6,1.3c-2.5,0.2-5.1,0.2-7.7-0.1
		c-4.1-0.4-9.4,1.1-12.1-3.5c-0.4-0.7-0.8-1.6-1-2.4c1.9,1.6,5.9,0.9,7.6,0.6c0.2,0,0.1-0.3,0-0.3c-1.4-0.2-2.7-0.1-4.1-0.2
		c-1.3-0.1-3.2-0.3-4-1.7c-0.5-1.8-1-3.5-2-4.9C111,217.8,113.5,218.1,115.7,218.2L115.7,218.2z M107.3,217.1c0.3-0.3,0.6-0.6,0.8-1
		c1.5,3.6,2,7.9,4.3,11c3,4.1,8.6,2.6,12.6,3c2.6,0.2,5.3,0.2,7.9,0c1.6-0.2,3.2-0.5,4.6-1.5c1.4-1.1,2.2-2.9,2.8-4.6
		c0.5-1.4,0.9-2.8,1.3-4.2c0.4-1.6,1-3.3,1.2-5l0-0.1c0.1,0.2,0.2,0.4,0.4,0.5c0.2,0.1,0.3-0.1,0.4-0.3c0.1-0.5-0.3-1-0.6-1.3
		c-0.4-0.4-0.8-0.6-1.3-0.6c-0.2,0-0.3,0.4-0.1,0.5c0.3,0.1,0.5,0.3,0.7,0.5c-5.4,3.6-11.7,2.6-17.6,3.2c-5.3,0.5-11.2,1.4-16.1-1.5
		c0.1-0.1,0.3-0.3,0.4-0.4c0.1-0.1,0.1-0.2,0.2-0.3c0.1-0.1,0.1-0.2,0.1-0.3c0.1-0.1,0.1-0.3-0.1-0.3c-0.5,0-0.8,0.4-1.2,0.8
		c-0.4,0.4-0.8,0.9-1,1.4C106.9,216.9,107.1,217.2,107.3,217.1L107.3,217.1z"/>
	<path class="st6" d="M121,233.2c1.4,0.9,3.2,1,4.8,1.1c1.6,0,3.8,0,5.2-0.7c0.2-0.1,0.1-0.4-0.1-0.4c-0.6,0-1.2,0.2-1.8,0.3
		c-1,0.2-2,0.2-2.9,0.3c-1.7,0.1-3.5-0.1-5.1-0.7C121,233,120.9,233.2,121,233.2L121,233.2z"/>
	<polygon class="st16" points="136.9,215 136.1,219.6 141.9,220.3 136.1,219.9 138.4,226.6 136,220 131.3,225.3 135.8,219.8 
		130.4,218.2 135.9,219.6 136.9,215 	"/>
</g>
</svg>
